<svg width="264" height="91" viewBox="0 0 264 91" fill="none" xmlns="http://www.w3.org/2000/svg">
<path d="M0.609375 0.640625H7.54688V15.2656C9.09375 15.1094 10.1406 14.7109 10.6875 14.0703C11.2344 13.4297 12.0781 11.6484 13.2188 8.72656C14.6562 5.00781 16.1016 2.69531 17.5547 1.78906C18.9922 0.882812 21.3125 0.429688 24.5156 0.429688C24.6719 0.429688 25.0078 0.421875 25.5234 0.40625V5.53906L24.5391 5.51562C23.1172 5.51562 22.0781 5.69531 21.4219 6.05469C20.7656 6.39844 20.2344 6.92969 19.8281 7.64844C19.4219 8.36719 18.8203 9.84375 18.0234 12.0781C17.6016 13.2656 17.1406 14.2578 16.6406 15.0547C16.1562 15.8516 15.2891 16.6016 14.0391 17.3047C15.5859 17.7422 16.8594 18.625 17.8594 19.9531C18.875 21.2812 19.9844 23.1562 21.1875 25.5781L25.875 35H17.7188L13.6172 26.1172C13.5547 25.9922 13.4219 25.75 13.2188 25.3906C13.1406 25.2656 12.8516 24.7266 12.3516 23.7734C11.4609 22.0859 10.7266 21.0312 10.1484 20.6094C9.58594 20.1875 8.71875 19.9688 7.54688 19.9531V35H0.609375V0.640625ZM27.5156 0.640625H35.2734L43.2891 18.4766L50.1328 0.640625H57.375L45.7734 26.75C44.5078 29.5781 43.2188 31.7344 41.9062 33.2188C40.5938 34.6875 38.8984 35.4219 36.8203 35.4219C34.7734 35.4219 33.1719 35.2891 32.0156 35.0234V29.8672C33 29.9297 33.8906 29.9609 34.6875 29.9609C36.2969 29.9609 37.4453 29.6719 38.1328 29.0938C38.8359 28.5 39.5078 27.2344 40.1484 25.2969L27.5156 0.640625ZM65.7656 10.0156L59.0156 8.44531C60.4688 2.85156 64.6016 0.0546875 71.4141 0.0546875C75.4453 0.0546875 78.4844 0.945312 80.5312 2.72656C82.5938 4.49219 83.625 6.57031 83.625 8.96094C83.625 10.6016 83.1562 12.0859 82.2188 13.4141C81.2812 14.7266 79.875 15.8828 78 16.8828C80.2812 17.6641 81.9922 18.7734 83.1328 20.2109C84.2734 21.6328 84.8438 23.3906 84.8438 25.4844C84.8438 28.5 83.7344 30.9375 81.5156 32.7969C79.3125 34.6562 76.0078 35.5859 71.6016 35.5859C68.0078 35.5859 65.1719 34.9922 63.0938 33.8047C61.0156 32.6016 59.4531 30.3594 58.4062 27.0781L64.7578 24.9922C65.4141 27.0547 66.2812 28.3906 67.3594 29C68.4531 29.6094 69.7969 29.9141 71.3906 29.9141C73.5781 29.9141 75.1719 29.4453 76.1719 28.5078C77.1719 27.5547 77.6719 26.4688 77.6719 25.25C77.6719 23.8438 77.1016 22.7109 75.9609 21.8516C74.8359 20.9922 73.1328 20.5625 70.8516 20.5625H69.2812V15.3828H70.0781C72.2031 15.3828 73.8281 14.9062 74.9531 13.9531C76.0781 13 76.6406 11.7344 76.6406 10.1562C76.6406 8.90625 76.1797 7.85156 75.2578 6.99219C74.3516 6.13281 73.0469 5.70312 71.3438 5.70312C68.4375 5.70312 66.5781 7.14062 65.7656 10.0156Z" fill="#1EECF3"/>
<path d="M0.515625 55.6406H14.25C16.9688 55.6406 18.9922 55.7578 20.3203 55.9922C21.6641 56.2109 22.8594 56.6797 23.9062 57.3984C24.9688 58.1172 25.8516 59.0781 26.5547 60.2812C27.2578 61.4688 27.6094 62.8047 27.6094 64.2891C27.6094 65.8984 27.1719 67.375 26.2969 68.7188C25.4375 70.0625 24.2656 71.0703 22.7812 71.7422C24.875 72.3516 26.4844 73.3906 27.6094 74.8594C28.7344 76.3281 29.2969 78.0547 29.2969 80.0391C29.2969 81.6016 28.9297 83.125 28.1953 84.6094C27.4766 86.0781 26.4844 87.2578 25.2188 88.1484C23.9688 89.0234 22.4219 89.5625 20.5781 89.7656C19.4219 89.8906 16.6328 89.9688 12.2109 90H0.515625V55.6406ZM7.45312 61.3594V69.3047H12C14.7031 69.3047 16.3828 69.2656 17.0391 69.1875C18.2266 69.0469 19.1562 68.6406 19.8281 67.9688C20.5156 67.2812 20.8594 66.3828 20.8594 65.2734C20.8594 64.2109 20.5625 63.3516 19.9688 62.6953C19.3906 62.0234 18.5234 61.6172 17.3672 61.4766C16.6797 61.3984 14.7031 61.3594 11.4375 61.3594H7.45312ZM7.45312 75.0234V84.2109H13.875C16.375 84.2109 17.9609 84.1406 18.6328 84C19.6641 83.8125 20.5 83.3594 21.1406 82.6406C21.7969 81.9062 22.125 80.9297 22.125 79.7109C22.125 78.6797 21.875 77.8047 21.375 77.0859C20.875 76.3672 20.1484 75.8438 19.1953 75.5156C18.2578 75.1875 16.2109 75.0234 13.0547 75.0234H7.45312ZM32.5547 73.0312C32.5547 69.5312 33.0781 66.5938 34.125 64.2188C34.9062 62.4688 35.9688 60.8984 37.3125 59.5078C38.6719 58.1172 40.1562 57.0859 41.7656 56.4141C43.9062 55.5078 46.375 55.0547 49.1719 55.0547C54.2344 55.0547 58.2812 56.625 61.3125 59.7656C64.3594 62.9062 65.8828 67.2734 65.8828 72.8672C65.8828 78.4141 64.375 82.7578 61.3594 85.8984C58.3438 89.0234 54.3125 90.5859 49.2656 90.5859C44.1562 90.5859 40.0938 89.0312 37.0781 85.9219C34.0625 82.7969 32.5547 78.5 32.5547 73.0312ZM39.7031 72.7969C39.7031 76.6875 40.6016 79.6406 42.3984 81.6562C44.1953 83.6562 46.4766 84.6562 49.2422 84.6562C52.0078 84.6562 54.2734 83.6641 56.0391 81.6797C57.8203 79.6797 58.7109 76.6875 58.7109 72.7031C58.7109 68.7656 57.8438 65.8281 56.1094 63.8906C54.3906 61.9531 52.1016 60.9844 49.2422 60.9844C46.3828 60.9844 44.0781 61.9688 42.3281 63.9375C40.5781 65.8906 39.7031 68.8438 39.7031 72.7969ZM72.5625 55.6406H96.6328V90H89.6953V61.4531H79.3594V76.125C79.3594 80.3281 79.2188 83.2656 78.9375 84.9375C78.6562 86.5938 77.9688 87.8906 76.875 88.8281C75.7969 89.75 74.1016 90.2109 71.7891 90.2109C70.9766 90.2109 69.5 90.1328 67.3594 89.9766V84.6094L68.9062 84.6328C70.3594 84.6328 71.3359 84.4375 71.8359 84.0469C72.3359 83.6562 72.5859 82.6953 72.5859 81.1641L72.5625 75.2578V55.6406ZM102.398 73.0312C102.398 69.5312 102.922 66.5938 103.969 64.2188C104.75 62.4688 105.812 60.8984 107.156 59.5078C108.516 58.1172 110 57.0859 111.609 56.4141C113.75 55.5078 116.219 55.0547 119.016 55.0547C124.078 55.0547 128.125 56.625 131.156 59.7656C134.203 62.9062 135.727 67.2734 135.727 72.8672C135.727 78.4141 134.219 82.7578 131.203 85.8984C128.188 89.0234 124.156 90.5859 119.109 90.5859C114 90.5859 109.938 89.0312 106.922 85.9219C103.906 82.7969 102.398 78.5 102.398 73.0312ZM109.547 72.7969C109.547 76.6875 110.445 79.6406 112.242 81.6562C114.039 83.6562 116.32 84.6562 119.086 84.6562C121.852 84.6562 124.117 83.6641 125.883 81.6797C127.664 79.6797 128.555 76.6875 128.555 72.7031C128.555 68.7656 127.688 65.8281 125.953 63.8906C124.234 61.9531 121.945 60.9844 119.086 60.9844C116.227 60.9844 113.922 61.9688 112.172 63.9375C110.422 65.8906 109.547 68.8438 109.547 72.7969ZM141.188 90V55.6406H148.125V69.1641H161.719V55.6406H168.656V90H161.719V74.9766H148.125V90H141.188ZM183.586 90V61.4531H173.391V55.6406H200.695V61.4531H190.523V90H183.586ZM205.195 90V55.6406H230.672V61.4531H212.133V69.0703H229.383V74.8594H212.133V84.2109H231.328V90H205.195ZM237.211 90V55.6406H248.344C252.562 55.6406 255.312 55.8125 256.594 56.1562C258.562 56.6719 260.211 57.7969 261.539 59.5312C262.867 61.25 263.531 63.4766 263.531 66.2109C263.531 68.3203 263.148 70.0938 262.383 71.5312C261.617 72.9688 260.641 74.1016 259.453 74.9297C258.281 75.7422 257.086 76.2812 255.867 76.5469C254.211 76.875 251.812 77.0391 248.672 77.0391H244.148V90H237.211ZM244.148 61.4531V71.2031H247.945C250.68 71.2031 252.508 71.0234 253.43 70.6641C254.352 70.3047 255.07 69.7422 255.586 68.9766C256.117 68.2109 256.383 67.3203 256.383 66.3047C256.383 65.0547 256.016 64.0234 255.281 63.2109C254.547 62.3984 253.617 61.8906 252.492 61.6875C251.664 61.5312 250 61.4531 247.5 61.4531H244.148Z" fill="#AC2CCC"/>
</svg>
