<svg width="111" height="39" viewBox="0 0 111 39" fill="none" xmlns="http://www.w3.org/2000/svg">
<path d="M0.503906 0.683594H3.39453V6.77734C4.03906 6.71224 4.47526 6.54622 4.70312 6.2793C4.93099 6.01237 5.28255 5.27018 5.75781 4.05273C6.35677 2.50326 6.95898 1.53971 7.56445 1.16211C8.16341 0.784505 9.13021 0.595703 10.4648 0.595703C10.5299 0.595703 10.6699 0.592448 10.8848 0.585938V2.72461L10.4746 2.71484C9.88216 2.71484 9.44922 2.78971 9.17578 2.93945C8.90234 3.08268 8.68099 3.30404 8.51172 3.60352C8.34245 3.90299 8.0918 4.51823 7.75977 5.44922C7.58398 5.94401 7.39193 6.35742 7.18359 6.68945C6.98177 7.02148 6.62044 7.33398 6.09961 7.62695C6.74414 7.80924 7.27474 8.17708 7.69141 8.73047C8.11458 9.28385 8.57682 10.0651 9.07812 11.0742L11.0312 15H7.63281L5.92383 11.2988C5.89779 11.2467 5.84245 11.1458 5.75781 10.9961C5.72526 10.944 5.60482 10.7194 5.39648 10.3223C5.02539 9.61914 4.7194 9.17969 4.47852 9.00391C4.24414 8.82812 3.88281 8.73698 3.39453 8.73047V15H0.503906V0.683594ZM11.7148 0.683594H14.9473L18.2871 8.11523L21.1387 0.683594H24.1562L19.3223 11.5625C18.7949 12.7409 18.2578 13.6393 17.7109 14.2578C17.1641 14.8698 16.4577 15.1758 15.5918 15.1758C14.7389 15.1758 14.0716 15.1204 13.5898 15.0098V12.8613C14 12.8874 14.3711 12.9004 14.7031 12.9004C15.3737 12.9004 15.8522 12.7799 16.1387 12.5391C16.4316 12.2917 16.7116 11.7643 16.9785 10.957L11.7148 0.683594ZM27.6523 4.58984L24.8398 3.93555C25.4453 1.60482 27.1673 0.439453 30.0059 0.439453C31.6855 0.439453 32.9518 0.810547 33.8047 1.55273C34.6641 2.28841 35.0938 3.1543 35.0938 4.15039C35.0938 4.83398 34.8984 5.45247 34.5078 6.00586C34.1172 6.55273 33.5312 7.03451 32.75 7.45117C33.7005 7.77669 34.4134 8.23893 34.8887 8.83789C35.3639 9.43034 35.6016 10.1628 35.6016 11.0352C35.6016 12.2917 35.1393 13.3073 34.2148 14.082C33.2969 14.8568 31.9199 15.2441 30.084 15.2441C28.5866 15.2441 27.4049 14.9967 26.5391 14.502C25.6732 14.0007 25.0221 13.0664 24.5859 11.6992L27.2324 10.8301C27.5059 11.6895 27.8672 12.2461 28.3164 12.5C28.7721 12.7539 29.332 12.8809 29.9961 12.8809C30.9076 12.8809 31.5716 12.6855 31.9883 12.2949C32.4049 11.8978 32.6133 11.4453 32.6133 10.9375C32.6133 10.3516 32.3757 9.87956 31.9004 9.52148C31.4316 9.16341 30.722 8.98438 29.7715 8.98438H29.1172V6.82617H29.4492C30.3346 6.82617 31.0117 6.6276 31.4805 6.23047C31.9492 5.83333 32.1836 5.30599 32.1836 4.64844C32.1836 4.1276 31.9915 3.68815 31.6074 3.33008C31.2298 2.97201 30.6862 2.79297 29.9766 2.79297C28.7656 2.79297 27.9909 3.39193 27.6523 4.58984Z" fill="#1EECF3"/>
<path d="M0.464844 23.6836H6.1875C7.32031 23.6836 8.16341 23.7324 8.7168 23.8301C9.27669 23.9212 9.77474 24.1165 10.2109 24.416C10.6536 24.7155 11.0215 25.1159 11.3145 25.6172C11.6074 26.112 11.7539 26.6686 11.7539 27.2871C11.7539 27.9577 11.5716 28.5729 11.207 29.1328C10.849 29.6927 10.3607 30.1126 9.74219 30.3926C10.6146 30.6465 11.2852 31.0794 11.7539 31.6914C12.2227 32.3034 12.457 33.0228 12.457 33.8496C12.457 34.5007 12.304 35.1354 11.998 35.7539C11.6986 36.3659 11.2852 36.8574 10.7578 37.2285C10.237 37.5931 9.59245 37.8177 8.82422 37.9023C8.34245 37.9544 7.18034 37.987 5.33789 38H0.464844V23.6836ZM3.35547 26.0664V29.377H5.25C6.3763 29.377 7.07617 29.3607 7.34961 29.3281C7.8444 29.2695 8.23177 29.1003 8.51172 28.8203C8.79818 28.5339 8.94141 28.1595 8.94141 27.6973C8.94141 27.2546 8.81771 26.8965 8.57031 26.623C8.32943 26.3431 7.9681 26.1738 7.48633 26.1152C7.19987 26.0827 6.3763 26.0664 5.01562 26.0664H3.35547ZM3.35547 31.7598V35.5879H6.03125C7.07292 35.5879 7.73372 35.5586 8.01367 35.5C8.44336 35.4219 8.79167 35.2331 9.05859 34.9336C9.33203 34.6276 9.46875 34.2207 9.46875 33.7129C9.46875 33.2832 9.36458 32.9186 9.15625 32.6191C8.94792 32.3197 8.64518 32.1016 8.24805 31.9648C7.85742 31.8281 7.00456 31.7598 5.68945 31.7598H3.35547ZM13.8145 30.9297C13.8145 29.4714 14.0326 28.2474 14.4688 27.2578C14.7943 26.5286 15.237 25.8743 15.7969 25.2949C16.3633 24.7155 16.9818 24.2858 17.6523 24.0059C18.5443 23.6283 19.5729 23.4395 20.7383 23.4395C22.8477 23.4395 24.5339 24.0938 25.7969 25.4023C27.0664 26.7109 27.7012 28.5306 27.7012 30.8613C27.7012 33.1725 27.0729 34.9824 25.8164 36.291C24.5599 37.5931 22.8802 38.2441 20.7773 38.2441C18.6484 38.2441 16.9557 37.5964 15.6992 36.3008C14.4427 34.9987 13.8145 33.2083 13.8145 30.9297ZM16.793 30.832C16.793 32.4531 17.1673 33.6836 17.916 34.5234C18.6647 35.3568 19.6152 35.7734 20.7676 35.7734C21.9199 35.7734 22.8639 35.36 23.5996 34.5332C24.3418 33.6999 24.7129 32.4531 24.7129 30.793C24.7129 29.1523 24.3516 27.9284 23.6289 27.1211C22.9128 26.3138 21.959 25.9102 20.7676 25.9102C19.5762 25.9102 18.6159 26.3203 17.8867 27.1406C17.1576 27.9544 16.793 29.1849 16.793 30.832ZM30.4844 23.6836H40.5137V38H37.623V26.1055H33.3164V32.2188C33.3164 33.9701 33.2578 35.194 33.1406 35.8906C33.0234 36.5807 32.737 37.1211 32.2812 37.5117C31.832 37.8958 31.1257 38.0879 30.1621 38.0879C29.8236 38.0879 29.2083 38.0553 28.3164 37.9902V35.7539L28.9609 35.7637C29.5664 35.7637 29.9733 35.6823 30.1816 35.5195C30.39 35.3568 30.4941 34.9564 30.4941 34.3184L30.4844 31.8574V23.6836ZM42.916 30.9297C42.916 29.4714 43.1341 28.2474 43.5703 27.2578C43.8958 26.5286 44.3385 25.8743 44.8984 25.2949C45.4648 24.7155 46.0833 24.2858 46.7539 24.0059C47.6458 23.6283 48.6745 23.4395 49.8398 23.4395C51.9492 23.4395 53.6354 24.0938 54.8984 25.4023C56.168 26.7109 56.8027 28.5306 56.8027 30.8613C56.8027 33.1725 56.1745 34.9824 54.918 36.291C53.6615 37.5931 51.9818 38.2441 49.8789 38.2441C47.75 38.2441 46.0573 37.5964 44.8008 36.3008C43.5443 34.9987 42.916 33.2083 42.916 30.9297ZM45.8945 30.832C45.8945 32.4531 46.2689 33.6836 47.0176 34.5234C47.7663 35.3568 48.7168 35.7734 49.8691 35.7734C51.0215 35.7734 51.9655 35.36 52.7012 34.5332C53.4434 33.6999 53.8145 32.4531 53.8145 30.793C53.8145 29.1523 53.4531 27.9284 52.7305 27.1211C52.0143 26.3138 51.0605 25.9102 49.8691 25.9102C48.6777 25.9102 47.7174 26.3203 46.9883 27.1406C46.2591 27.9544 45.8945 29.1849 45.8945 30.832ZM59.0781 38V23.6836H61.9688V29.3184H67.6328V23.6836H70.5234V38H67.6328V31.7402H61.9688V38H59.0781ZM76.7441 38V26.1055H72.4961V23.6836H83.873V26.1055H79.6348V38H76.7441ZM85.748 38V23.6836H96.3633V26.1055H88.6387V29.2793H95.8262V31.6914H88.6387V35.5879H96.6367V38H85.748ZM99.0879 38V23.6836H103.727C105.484 23.6836 106.63 23.7552 107.164 23.8984C107.984 24.1133 108.671 24.582 109.225 25.3047C109.778 26.0208 110.055 26.9486 110.055 28.0879C110.055 28.9668 109.895 29.7057 109.576 30.3047C109.257 30.9036 108.85 31.3757 108.355 31.7207C107.867 32.0592 107.369 32.2839 106.861 32.3945C106.171 32.5312 105.172 32.5996 103.863 32.5996H101.979V38H99.0879ZM101.979 26.1055V30.168H103.561C104.7 30.168 105.462 30.0931 105.846 29.9434C106.23 29.7936 106.529 29.5592 106.744 29.2402C106.965 28.9212 107.076 28.5501 107.076 28.127C107.076 27.6061 106.923 27.1764 106.617 26.8379C106.311 26.4993 105.924 26.2878 105.455 26.2031C105.11 26.138 104.417 26.1055 103.375 26.1055H101.979Z" fill="#AC2CCC"/>
</svg>
